<svg width="1337" height="362" viewBox="0 0 1337 362" fill="none" xmlns="http://www.w3.org/2000/svg">
<path d="M145.627 223.091H105.571C105.287 219.777 104.529 216.77 103.298 214.071C102.114 211.372 100.457 209.052 98.3263 207.111C96.243 205.122 93.7099 203.607 90.7269 202.565C87.744 201.476 84.3585 200.932 80.5707 200.932C73.9419 200.932 68.3311 202.542 63.7383 205.761C59.1928 208.981 55.7364 213.598 53.369 219.611C51.0489 225.624 49.8888 232.845 49.8888 241.273C49.8888 250.174 51.0726 257.632 53.44 263.645C55.8548 269.611 59.3349 274.109 63.8803 277.139C68.4258 280.122 73.8945 281.614 80.2866 281.614C83.9324 281.614 87.1995 281.164 90.0877 280.264C92.976 279.317 95.4854 277.968 97.6161 276.216C99.7468 274.464 101.475 272.357 102.801 269.895C104.174 267.385 105.097 264.568 105.571 261.443L145.627 261.727C145.154 267.883 143.426 274.156 140.443 280.548C137.46 286.893 133.222 292.764 127.73 298.162C122.285 303.512 115.538 307.821 107.488 311.088C99.439 314.355 90.0877 315.989 79.4343 315.989C66.082 315.989 54.1029 313.124 43.4968 307.395C32.9381 301.666 24.5811 293.238 18.4258 282.111C12.3178 270.984 9.26385 257.371 9.26385 241.273C9.26385 225.08 12.3888 211.443 18.6388 200.364C24.8888 189.237 33.3169 180.832 43.9229 175.151C54.529 169.421 66.3661 166.557 79.4343 166.557C88.6199 166.557 97.0716 167.812 104.789 170.321C112.507 172.83 119.278 176.5 125.102 181.33C130.926 186.112 135.613 192.007 139.164 199.014C142.716 206.022 144.87 214.047 145.627 223.091ZM164.111 314V204.909H265.816V314H228.884V234.17H200.475V314H164.111ZM281.529 314L281.245 284.455H284.654C286.785 284.455 288.655 283.839 290.265 282.608C291.922 281.377 293.319 279.483 294.456 276.926C295.639 274.369 296.563 271.126 297.225 267.196C297.936 263.266 298.386 258.602 298.575 253.205L300.279 204.909H390.052V314H353.12V234.17H334.939L333.234 263.716C332.761 272.996 331.435 280.856 329.257 287.295C327.126 293.735 324.285 298.92 320.734 302.849C317.183 306.732 313.064 309.573 308.376 311.372C303.689 313.124 298.528 314 292.893 314H281.529ZM452.02 233.034C448.8 233.034 446.243 233.508 444.349 234.455C442.502 235.402 441.177 236.798 440.372 238.645C439.614 240.444 439.235 242.741 439.235 245.534H404.86C404.86 238.858 405.997 232.892 408.27 227.636C410.542 222.333 413.786 217.859 418 214.213C422.214 210.52 427.185 207.726 432.914 205.832C438.691 203.891 445.059 202.92 452.02 202.92C463.667 202.92 473.421 205.335 481.281 210.165C489.188 214.947 495.13 221.528 499.108 229.909C503.132 238.29 505.145 247.854 505.145 258.602V260.307C505.145 271.15 503.156 280.761 499.179 289.142C495.249 297.523 489.33 304.104 481.423 308.886C473.563 313.621 463.762 315.989 452.02 315.989C442.645 315.989 434.406 314.284 427.304 310.875C420.249 307.419 414.733 302.329 410.755 295.605C406.825 288.834 404.86 280.477 404.86 270.534H439.235C439.235 273.375 439.614 275.932 440.372 278.205C441.177 280.477 442.502 282.277 444.349 283.602C446.243 284.881 448.8 285.544 452.02 285.591C457.133 285.544 460.826 284.218 463.099 281.614C465.372 279.009 466.792 275.766 467.36 271.884C467.929 267.954 468.213 264.095 468.213 260.307V258.602C468.213 254.104 467.881 249.914 467.218 246.031C466.603 242.149 465.135 239.024 462.815 236.656C460.542 234.241 456.944 233.034 452.02 233.034ZM478.156 250.08V269.398H445.77V250.08H478.156ZM521.142 204.909H558.074V284.455H581.938V204.909H618.87V284.455H642.733V204.909H679.665V314H521.142V204.909Z" fill="white"/>
<rect x="724" y="180" width="613" height="167" rx="55" fill="white"/>
<path d="M775.709 297V226.091H833.553V297H820.027V238.001H789.143V297H775.709ZM872.643 298.57C868.15 298.57 864.087 297.739 860.456 296.077C856.824 294.384 853.947 291.937 851.823 288.737C849.73 285.536 848.684 281.612 848.684 276.964C848.684 272.964 849.453 269.67 850.992 267.085C852.531 264.5 854.608 262.453 857.224 260.945C859.84 259.437 862.764 258.299 865.996 257.529C869.227 256.76 872.52 256.175 875.875 255.775C880.122 255.282 883.569 254.882 886.216 254.575C888.863 254.236 890.786 253.697 891.986 252.959C893.187 252.22 893.787 251.02 893.787 249.358V249.035C893.787 245.003 892.648 241.879 890.371 239.663C888.124 237.447 884.769 236.339 880.307 236.339C875.659 236.339 871.997 237.37 869.319 239.433C866.673 241.464 864.841 243.726 863.826 246.219L850.854 243.264C852.392 238.955 854.639 235.478 857.594 232.831C860.579 230.153 864.01 228.214 867.888 227.014C871.766 225.783 875.844 225.168 880.122 225.168C882.953 225.168 885.954 225.506 889.124 226.183C892.325 226.83 895.31 228.03 898.08 229.784C900.881 231.538 903.174 234.047 904.959 237.309C906.744 240.54 907.636 244.741 907.636 249.912V297H894.156V287.305H893.602C892.71 289.09 891.371 290.845 889.586 292.568C887.801 294.292 885.508 295.723 882.707 296.862C879.907 298 876.552 298.57 872.643 298.57ZM875.644 287.49C879.46 287.49 882.723 286.736 885.431 285.228C888.17 283.72 890.247 281.75 891.663 279.319C893.11 276.857 893.833 274.225 893.833 271.425V262.284C893.34 262.777 892.386 263.238 890.971 263.669C889.586 264.069 888.001 264.423 886.216 264.731C884.431 265.008 882.692 265.269 880.999 265.516C879.306 265.731 877.891 265.916 876.752 266.07C874.074 266.408 871.628 266.978 869.412 267.778C867.227 268.578 865.472 269.732 864.149 271.24C862.856 272.717 862.21 274.687 862.21 277.149C862.21 280.565 863.472 283.151 865.996 284.905C868.519 286.628 871.735 287.49 875.644 287.49ZM926.021 323.591V226.091H939.501V237.586H940.656C941.456 236.109 942.61 234.401 944.118 232.462C945.626 230.523 947.719 228.83 950.396 227.384C953.074 225.906 956.613 225.168 961.014 225.168C966.739 225.168 971.848 226.614 976.341 229.507C980.834 232.4 984.358 236.57 986.913 242.018C989.498 247.465 990.79 254.021 990.79 261.684C990.79 269.347 989.513 275.918 986.959 281.396C984.404 286.844 980.896 291.045 976.433 293.999C971.971 296.923 966.877 298.385 961.153 298.385C956.844 298.385 953.32 297.662 950.581 296.215C947.873 294.769 945.749 293.076 944.21 291.137C942.671 289.198 941.487 287.475 940.656 285.967H939.825V323.591H926.021ZM939.548 261.545C939.548 266.531 940.271 270.902 941.717 274.656C943.164 278.411 945.257 281.35 947.996 283.474C950.735 285.567 954.089 286.613 958.06 286.613C962.184 286.613 965.631 285.52 968.401 283.335C971.17 281.119 973.263 278.119 974.679 274.333C976.125 270.548 976.849 266.285 976.849 261.545C976.849 256.867 976.141 252.666 974.725 248.942C973.34 245.219 971.247 242.279 968.447 240.125C965.677 237.971 962.214 236.893 958.06 236.893C954.059 236.893 950.673 237.924 947.903 239.987C945.164 242.049 943.087 244.926 941.671 248.619C940.255 252.312 939.548 256.621 939.548 261.545ZM997.715 238.001V226.091H1057.54V238.001H1034.42V297H1020.94V238.001H997.715ZM1120.2 255.59V267.547H1081.79V255.59H1120.2ZM1085.67 226.091V297H1072.14V226.091H1085.67ZM1129.85 226.091V297H1116.37V226.091H1129.85ZM1178.88 298.431C1171.89 298.431 1165.87 296.938 1160.83 293.953C1155.81 290.937 1151.93 286.705 1149.19 281.258C1146.49 275.78 1145.13 269.363 1145.13 262.007C1145.13 254.744 1146.49 248.342 1149.19 242.803C1151.93 237.263 1155.75 232.939 1160.64 229.83C1165.57 226.722 1171.32 225.168 1177.91 225.168C1181.91 225.168 1185.79 225.829 1189.54 227.153C1193.3 228.476 1196.67 230.554 1199.65 233.385C1202.64 236.216 1204.99 239.894 1206.71 244.418C1208.44 248.912 1209.3 254.375 1209.3 260.807V265.7H1152.93V255.359H1195.77C1195.77 251.728 1195.03 248.512 1193.56 245.711C1192.08 242.879 1190 240.648 1187.33 239.017C1184.68 237.386 1181.57 236.57 1178 236.57C1174.12 236.57 1170.74 237.524 1167.84 239.433C1164.98 241.31 1162.77 243.772 1161.2 246.819C1159.66 249.835 1158.89 253.113 1158.89 256.652V264.731C1158.89 269.47 1159.72 273.502 1161.38 276.826C1163.07 280.15 1165.43 282.689 1168.44 284.443C1171.46 286.167 1174.98 287.028 1179.02 287.028C1181.63 287.028 1184.02 286.659 1186.17 285.92C1188.33 285.151 1190.19 284.012 1191.76 282.504C1193.33 280.996 1194.53 279.134 1195.36 276.918L1208.42 279.273C1207.38 283.12 1205.5 286.49 1202.79 289.383C1200.11 292.245 1196.74 294.476 1192.68 296.077C1188.65 297.646 1184.05 298.431 1178.88 298.431ZM1224.62 323.591V226.091H1238.1V237.586H1239.25C1240.05 236.109 1241.2 234.401 1242.71 232.462C1244.22 230.523 1246.31 228.83 1248.99 227.384C1251.67 225.906 1255.21 225.168 1259.61 225.168C1265.33 225.168 1270.44 226.614 1274.93 229.507C1279.43 232.4 1282.95 236.57 1285.51 242.018C1288.09 247.465 1289.38 254.021 1289.38 261.684C1289.38 269.347 1288.11 275.918 1285.55 281.396C1283 286.844 1279.49 291.045 1275.03 293.999C1270.56 296.923 1265.47 298.385 1259.75 298.385C1255.44 298.385 1251.91 297.662 1249.17 296.215C1246.47 294.769 1244.34 293.076 1242.8 291.137C1241.27 289.198 1240.08 287.475 1239.25 285.967H1238.42V323.591H1224.62ZM1238.14 261.545C1238.14 266.531 1238.86 270.902 1240.31 274.656C1241.76 278.411 1243.85 281.35 1246.59 283.474C1249.33 285.567 1252.68 286.613 1256.65 286.613C1260.78 286.613 1264.22 285.52 1266.99 283.335C1269.76 281.119 1271.86 278.119 1273.27 274.333C1274.72 270.548 1275.44 266.285 1275.44 261.545C1275.44 256.867 1274.73 252.666 1273.32 248.942C1271.93 245.219 1269.84 242.279 1267.04 240.125C1264.27 237.971 1260.81 236.893 1256.65 236.893C1252.65 236.893 1249.27 237.924 1246.5 239.987C1243.76 242.049 1241.68 244.926 1240.26 248.619C1238.85 252.312 1238.14 256.621 1238.14 261.545Z" fill="#002480"/>
<path d="M412.187 126L412.187 168" stroke="white" stroke-width="32"/>
<path d="M507 73.1865L465 73.1865" stroke="white" stroke-width="32"/>
<path d="M450.436 111L480.134 140.698" stroke="white" stroke-width="32"/>
<path d="M291.633 77.8936V127.659H248V79.5164C248 41.1105 280.724 0 332.538 0C349.442 0 362.562 4.90721 372.124 10.3976L345.894 45.0909C317.781 33.2841 291.633 58.3818 291.633 77.8936Z" fill="white"/>
<path d="M432.797 32.4757L451.309 50.8354L388.06 113.564L369.549 95.2046L373.06 91.7221L343.758 62.6607L345.894 45.0909L372.124 10.3976L399.79 7.08917L429.092 36.1505L432.797 32.4757Z" fill="white"/>
</svg>
