<svg width="15" height="18" viewBox="0 0 15 18" fill="none" xmlns="http://www.w3.org/2000/svg">
<path d="M13.0017 5.19062C13.0017 3.76204 11.5017 0.428711 7.50166 0.428711C3.50166 0.428711 2.00166 3.76204 2.00166 5.19062V9.00014C2.00166 9.51766 0 10.9049 0 13.2859C0 14.2382 1 14.7144 1.5 14.7144H13.5C14 14.7144 15 14.2382 15 13.2859C15 10.9049 13.0017 9.58358 13.0017 9.00014V5.19062Z" fill="#1D1D2D"/>
<path d="M9.5 15.667C9.77614 15.667 10.0069 15.8968 9.91571 16.1574C9.80337 16.4786 9.58159 16.7747 9.26777 17.0138C8.79893 17.3711 8.16304 17.5717 7.5 17.5717C6.83696 17.5717 6.20107 17.3711 5.73223 17.0138C5.41841 16.7747 5.19663 16.4786 5.08429 16.1574C4.99311 15.8968 5.22386 15.667 5.5 15.667L7.5 15.667H9.5Z" fill="#1D1D2D"/>
</svg>
