<svg width="18" height="18" viewBox="0 0 18 18" fill="none" xmlns="http://www.w3.org/2000/svg">
<path fill-rule="evenodd" clip-rule="evenodd" d="M0.93934 0.93934C1.52513 0.353553 2.47487 0.353553 3.06066 0.93934L9 6.87868L14.9393 0.93934C15.5251 0.353553 16.4749 0.353553 17.0607 0.93934C17.6464 1.52513 17.6464 2.47487 17.0607 3.06066L11.1213 9L17.0607 14.9393C17.6464 15.5251 17.6464 16.4749 17.0607 17.0607C16.4749 17.6464 15.5251 17.6464 14.9393 17.0607L9 11.1213L3.06066 17.0607C2.47487 17.6464 1.52513 17.6464 0.93934 17.0607C0.353553 16.4749 0.353553 15.5251 0.93934 14.9393L6.87868 9L0.93934 3.06066C0.353553 2.47487 0.353553 1.52513 0.93934 0.93934Z" fill="#7F8494"/>
</svg>
