<svg width="232" height="42" viewBox="0 0 232 42" fill="none" xmlns="http://www.w3.org/2000/svg">
<path d="M121.272 10.1316C121.272 4.53606 125.72 0 131.207 0H222.065C227.552 0 232 4.53606 232 10.1316V31.8684C232 37.4639 227.552 42 222.065 42H131.207C125.72 42 121.272 37.4639 121.272 31.8684V10.1316Z" fill="#134EF2"/>
<path d="M216.26 31.1316V16.0598H219.04V18.454H219.194C219.464 17.6429 219.938 17.0051 220.618 16.5406C221.305 16.0696 222.081 15.8341 222.947 15.8341C223.126 15.8341 223.338 15.8407 223.582 15.8538C223.832 15.8669 224.028 15.8832 224.169 15.9028V18.7092C224.053 18.6765 223.848 18.6405 223.553 18.6012C223.258 18.5554 222.963 18.5325 222.668 18.5325C221.988 18.5325 221.382 18.6797 220.849 18.9741C220.323 19.2619 219.906 19.6642 219.598 20.181C219.29 20.6913 219.136 21.2735 219.136 21.9276V31.1316H216.26Z" fill="#F4F6FA"/>
<path d="M206.727 31.4358C205.271 31.4358 204.017 31.1185 202.965 30.484C201.919 29.8429 201.111 28.9434 200.54 27.7856C199.976 26.6212 199.693 25.2572 199.693 23.6938C199.693 22.15 199.976 20.7894 200.54 19.6119C201.111 18.4344 201.906 17.5153 202.926 16.8546C203.953 16.1939 205.152 15.8636 206.525 15.8636C207.359 15.8636 208.167 16.0042 208.949 16.2855C209.732 16.5668 210.434 17.0083 211.057 17.6102C211.679 18.212 212.17 18.9937 212.529 19.9553C212.888 20.9104 213.068 22.0715 213.068 23.4387V24.4788H202.563L202.568 22.2808H210.248C210.248 21.5089 210.094 20.8253 209.787 20.2301C209.479 19.6282 209.046 19.154 208.488 18.8073C207.936 18.4606 207.288 18.2872 206.544 18.2872C205.736 18.2872 205.03 18.49 204.427 18.8956C203.831 19.2946 203.369 19.8179 203.042 20.4656C202.76 21.0279 202.602 21.633 202.568 22.2808L202.563 24.4788C202.585 25.3975 202.758 26.1858 203.08 26.8436C203.433 27.5501 203.924 28.0897 204.552 28.4626C205.181 28.8289 205.915 29.0121 206.756 29.0121C207.301 29.0121 207.798 28.9336 208.247 28.7766C208.696 28.6131 209.084 28.371 209.411 28.0505C209.738 27.73 209.989 27.3342 210.162 26.8632L212.885 27.3636C212.667 28.1813 212.275 28.8976 211.711 29.5125C211.153 30.1209 210.45 30.5952 209.604 30.9353C208.763 31.269 207.804 31.4358 206.727 31.4358Z" fill="#F4F6FA"/>
<path d="M187.041 22.1827V31.1316H184.164V16.0598H186.926V18.5129H187.108C187.448 17.7148 187.981 17.0737 188.706 16.5897C189.437 16.1056 190.357 15.8636 191.467 15.8636C192.474 15.8636 193.356 16.0794 194.113 16.5112C194.87 16.9364 195.457 17.5709 195.874 18.4148C196.291 19.2586 196.499 20.302 196.499 21.5449V31.1316H193.622V21.8982C193.622 20.8057 193.343 19.952 192.785 19.3371C192.227 18.7157 191.461 18.405 190.486 18.405C189.818 18.405 189.225 18.5521 188.706 18.8465C188.192 19.1409 187.785 19.5726 187.484 20.1417C187.189 20.7043 187.041 21.3846 187.041 22.1827Z" fill="#F4F6FA"/>
<path d="M175.074 12.4489H177.951C177.951 12.4489 177.951 14.6496 177.951 16.0598H180.982V18.4148H177.951V26.7062C177.951 27.2753 178.034 27.7038 178.201 27.9916C178.368 28.2729 178.583 28.4659 178.846 28.5706C179.115 28.6687 179.407 28.7178 179.721 28.7178C179.952 28.7178 180.154 28.7014 180.327 28.6687C180.501 28.636 180.635 28.6098 180.732 28.5902L181.251 31.0138C181.084 31.0793 180.847 31.1447 180.539 31.2101C180.231 31.2821 179.846 31.3213 179.384 31.3278C178.628 31.3409 177.922 31.2036 177.268 30.9157C176.613 30.6279 176.084 30.1831 175.68 29.5812C175.276 28.9794 175.074 28.2239 175.074 27.3146V18.4148H177.951H180.982V16.0598H177.951H175.074V12.4489Z" fill="#F4F6FA"/>
<path d="M162.811 31.1316V16.0598H165.592V18.454H165.746C166.015 17.6429 166.49 17.0051 167.17 16.5406C167.856 16.0696 168.632 15.8341 169.498 15.8341C169.678 15.8341 169.89 15.8407 170.133 15.8538C170.383 15.8669 170.579 15.8832 170.72 15.9028V18.7092C170.605 18.6765 170.399 18.6405 170.104 18.6012C169.809 18.5554 169.514 18.5325 169.219 18.5325C168.539 18.5325 167.933 18.6797 167.401 18.9741C166.875 19.2619 166.458 19.6642 166.15 20.181C165.842 20.6913 165.688 21.2735 165.688 21.9276V31.1316H162.811Z" fill="#F4F6FA"/>
<path d="M151.686 31.4652C150.749 31.4652 149.903 31.2886 149.146 30.9353C148.389 30.5755 147.789 30.0555 147.346 29.3752C146.91 28.6948 146.692 27.8608 146.692 26.873C146.692 26.0226 146.852 25.3227 147.173 24.7732C147.494 24.2237 147.927 23.7887 148.472 23.4681C149.017 23.1476 149.627 22.9056 150.3 22.742C150.974 22.5785 151.66 22.4542 152.359 22.3691C153.244 22.2645 153.963 22.1794 154.515 22.114C155.066 22.0421 155.467 21.9276 155.717 21.7706C155.967 21.6136 156.092 21.3585 156.092 21.0052V20.9365C156.092 20.0796 155.855 19.4156 155.38 18.9446C154.912 18.4736 154.213 18.2381 153.283 18.2381C152.314 18.2381 151.551 18.4573 150.993 18.8956C150.441 19.3273 150.06 19.8081 149.848 20.338L147.144 19.71C147.465 18.7942 147.933 18.055 148.549 17.4924C149.171 16.9233 149.886 16.5112 150.695 16.2561C151.503 15.9944 152.353 15.8636 153.244 15.8636C153.835 15.8636 154.46 15.9355 155.121 16.0794C155.788 16.2168 156.41 16.4719 156.987 16.8448C157.571 17.2177 158.049 17.7508 158.421 18.4442C158.793 19.1311 158.979 20.024 158.979 21.123V31.1316H156.169V29.071H156.054C155.868 29.4504 155.589 29.8233 155.217 30.1896C154.845 30.5559 154.367 30.8601 153.783 31.1021C153.2 31.3442 152.5 31.4652 151.686 31.4652ZM152.311 29.1102C153.107 29.1102 153.786 28.95 154.351 28.6294C154.922 28.3089 155.355 27.8902 155.65 27.3734C155.951 26.8501 156.102 26.2908 156.102 25.6955V23.7527C155.999 23.8574 155.801 23.9555 155.506 24.0471C155.217 24.1321 154.887 24.2073 154.515 24.2727C154.142 24.3316 153.78 24.3872 153.427 24.4396C153.074 24.4853 152.779 24.5246 152.542 24.5573C151.984 24.6293 151.474 24.7503 151.012 24.9204C150.557 25.0904 150.191 25.3357 149.915 25.6563C149.646 25.9703 149.511 26.3889 149.511 26.9123C149.511 27.6384 149.774 28.1879 150.3 28.5607C150.826 28.9271 151.497 29.1102 152.311 29.1102Z" fill="#F4F6FA"/>
<path d="M130.662 36.7835V16.0598H133.472V18.5031H133.713C133.879 18.1891 134.12 17.826 134.434 17.4139C134.748 17.0018 135.185 16.642 135.743 16.3346C136.301 16.0206 137.038 15.8636 137.956 15.8636C139.149 15.8636 140.214 16.171 141.15 16.7859C142.087 17.4008 142.821 18.2872 143.354 19.4451C143.892 20.6029 144.162 21.9963 144.162 23.6251C144.162 25.254 143.896 26.6506 143.363 27.815C142.831 28.9729 142.099 29.8658 141.169 30.4938C140.239 31.1152 139.178 31.426 137.985 31.426C137.087 31.426 136.352 31.2722 135.781 30.9648C135.217 30.6573 134.774 30.2975 134.453 29.8854C134.133 29.4733 133.886 29.107 133.713 28.7864H133.539V36.7835H130.662ZM133.482 23.5957C133.482 24.6554 133.632 25.5843 133.934 26.3824C134.235 27.1805 134.672 27.8052 135.242 28.2566C135.813 28.7014 136.512 28.9238 137.34 28.9238C138.199 28.9238 138.918 28.6916 139.495 28.2271C140.073 27.7561 140.509 27.1183 140.804 26.3137C141.105 25.5091 141.256 24.6031 141.256 23.5957C141.256 22.6014 141.108 21.7085 140.813 20.9169C140.525 20.1254 140.089 19.5007 139.505 19.0428C138.928 18.5849 138.206 18.3559 137.34 18.3559C136.506 18.3559 135.8 18.5751 135.223 19.0133C134.652 19.4516 134.219 20.0633 133.924 20.8483C133.629 21.6332 133.482 22.5491 133.482 23.5957Z" fill="#F4F6FA"/>
<path d="M180.982 18.4148V16.0598H177.951H175.074H172.909V18.4148H175.074H177.951H180.982Z" fill="#F4F6FA"/>
<path d="M23.1304 17.5691C23.1523 17.7653 22.9955 17.9342 22.7967 17.9342H16.6729C16.4965 17.9342 16.3508 17.8 16.3256 17.6267C16.2619 17.1878 16.1451 16.7833 15.975 16.4131C15.7739 15.958 15.4923 15.5667 15.1304 15.2394C14.7764 14.904 14.3461 14.6485 13.8393 14.4728C13.3326 14.2892 12.7574 14.1973 12.1139 14.1973C10.9878 14.1973 10.0346 14.4688 9.25437 15.0118C8.48217 15.5548 7.89497 16.3333 7.49278 17.3473C7.09864 18.3614 6.90156 19.5791 6.90156 21.0004C6.90156 22.5015 7.10266 23.7591 7.50485 24.7732C7.91508 25.7793 8.5063 26.5378 9.2785 27.0489C10.0507 27.5519 10.9798 27.8034 12.0657 27.8034C12.685 27.8034 13.2401 27.7276 13.7307 27.5759C14.2214 27.4162 14.6477 27.1886 15.0097 26.8932C15.3717 26.5977 15.6653 26.2424 15.8905 25.8272C16.0806 25.4824 16.2199 25.1031 16.3085 24.6893C16.3436 24.5253 16.4864 24.4028 16.6553 24.404L22.8018 24.4473C22.9988 24.4486 23.1539 24.6155 23.1298 24.8096C23.0151 25.732 22.7336 26.6701 22.2853 27.6238C21.7785 28.6937 21.0586 29.6838 20.1255 30.5941C19.2005 31.4964 18.0543 32.223 16.6868 32.774C15.3194 33.3249 13.7307 33.6004 11.9209 33.6004C9.65254 33.6004 7.61746 33.1173 5.81565 32.1511C4.02189 31.185 2.60216 29.7637 1.55647 27.8873C0.518824 26.0108 0 23.7152 0 21.0004C0 18.2696 0.53089 15.97 1.59267 14.1015C2.65445 12.2251 4.08624 10.8078 5.88805 9.84963C7.68986 8.88347 9.7008 8.40039 11.9209 8.40039C13.4814 8.40039 14.9172 8.61199 16.2283 9.03518C17.5395 9.45838 18.6897 10.0772 19.6791 10.8916C20.6685 11.6981 21.4648 12.6922 22.0681 13.874C22.6228 14.9606 22.9769 16.1923 23.1304 17.5691Z" fill="#134EF2"/>
<path d="M26.646 33.265C26.4583 33.265 26.3062 33.114 26.3062 32.9278V15.2053C26.3062 15.0191 26.4583 14.8681 26.646 14.8681H43.2445C43.4321 14.8681 43.5842 15.0191 43.5842 15.2053V32.9278C43.5842 33.114 43.4321 33.265 43.2445 33.265H37.6498C37.4622 33.265 37.3101 33.114 37.3101 32.9278V20.1399C37.3101 19.9537 37.158 19.8027 36.9703 19.8027H32.8236C32.6359 19.8027 32.4838 19.9537 32.4838 20.1399V32.9278C32.4838 33.114 32.3317 33.265 32.144 33.265H26.646Z" fill="#134EF2"/>
<path d="M46.5903 33.265C46.4039 33.265 46.2523 33.116 46.2505 32.931L46.2088 28.623C46.207 28.4355 46.3596 28.2825 46.5485 28.2825H46.7846C47.1466 28.2825 47.4643 28.1787 47.7378 27.9711C48.0194 27.7635 48.2567 27.4441 48.4497 27.0129C48.6508 26.5818 48.8077 26.0348 48.9203 25.3721C49.0409 24.7093 49.1173 23.9228 49.1495 23.0126L49.4275 15.1935C49.434 15.0119 49.5841 14.8681 49.7671 14.8681H64.3503C64.538 14.8681 64.6901 15.0191 64.6901 15.2053V32.9278C64.6901 33.114 64.538 33.265 64.3503 33.265H58.7557C58.5681 33.265 58.416 33.114 58.416 32.9278V20.1399C58.416 19.9537 58.2638 19.8027 58.0762 19.8027H55.6479C55.4678 19.8027 55.319 19.9421 55.3087 20.1205L55.0376 24.7852C54.9571 26.3502 54.7319 27.6757 54.3619 28.7616C53.9999 29.8475 53.5173 30.7219 52.914 31.3846C52.3107 32.0394 51.6109 32.5185 50.8146 32.8219C50.0182 33.1173 49.1415 33.265 48.1843 33.265H46.5903Z" fill="#134EF2"/>
<path d="M75.2174 19.611C74.6704 19.611 74.2361 19.6909 73.9143 19.8506C73.6006 20.0103 73.3754 20.2458 73.2386 20.5572C73.142 20.7849 73.0817 21.0599 73.0576 21.382C73.0437 21.5678 72.8935 21.719 72.7058 21.719H67.5456C67.3579 21.719 67.2051 21.5679 67.2117 21.3818C67.2467 20.3913 67.4378 19.4976 67.7849 18.7008C68.1711 17.8065 68.7221 17.0519 69.438 16.4371C70.1538 15.8143 70.9984 15.3432 71.9717 15.0238C72.9531 14.6964 74.035 14.5327 75.2174 14.5327C77.1962 14.5327 78.8532 14.9399 80.1885 15.7544C81.5318 16.5608 82.5413 17.6707 83.2169 19.084C83.9007 20.4973 84.2425 22.1103 84.2425 23.9228V24.2103C84.2425 26.0388 83.9047 27.6597 83.229 29.073C82.5614 30.4863 81.5559 31.5962 80.2126 32.4027C78.8773 33.2011 77.2123 33.6004 75.2174 33.6004C73.6247 33.6004 72.2251 33.3129 71.0185 32.738C69.82 32.1551 68.8829 31.2968 68.2072 30.1629C67.5849 29.0985 67.2526 27.8017 67.2104 26.2723C67.2053 26.0861 67.3579 25.935 67.5456 25.935H72.7058C72.8935 25.935 73.0441 26.0862 73.0567 26.2721C73.0802 26.6185 73.1409 26.9374 73.2386 27.2285C73.3754 27.6118 73.6006 27.9152 73.9143 28.1388C74.2361 28.3544 74.6704 28.4662 75.2174 28.4742C76.0861 28.4662 76.7135 28.2426 77.0996 27.8034C77.4857 27.3643 77.7271 26.8173 77.8236 26.1626C77.9201 25.4998 77.9684 24.8491 77.9684 24.2103V23.9228C77.9684 23.1643 77.9121 22.4576 77.7995 21.8029C77.6949 21.1481 77.4455 20.6211 77.0514 20.2219C76.6653 19.8146 76.054 19.611 75.2174 19.611ZM79.3178 22.4856C79.5055 22.4856 79.6576 22.6366 79.6576 22.8228V25.4061C79.6576 25.5924 79.5055 25.7434 79.3178 25.7434H74.4954C74.3077 25.7434 74.1556 25.5924 74.1556 25.4061V22.8228C74.1556 22.6366 74.3077 22.4856 74.4954 22.4856H79.3178Z" fill="#134EF2"/>
<path d="M86.9603 15.2053C86.9603 15.0191 87.1124 14.8681 87.3001 14.8681H92.8947C93.0823 14.8681 93.2345 15.0191 93.2345 15.2053V27.9452C93.2345 28.1315 93.3866 28.2825 93.5742 28.2825H96.9488C97.1364 28.2825 97.2885 28.1315 97.2885 27.9452V15.2053C97.2885 15.0191 97.4407 14.8681 97.6283 14.8681H103.223C103.411 14.8681 103.563 15.0191 103.563 15.2053V27.9452C103.563 28.1315 103.715 28.2825 103.902 28.2825H107.277C107.465 28.2825 107.617 28.1315 107.617 27.9452V15.2053C107.617 15.0191 107.769 14.8681 107.957 14.8681H113.551C113.739 14.8681 113.891 15.0191 113.891 15.2053V32.9278C113.891 33.114 113.739 33.265 113.551 33.265H87.3001C87.1124 33.265 86.9603 33.114 86.9603 32.9278V15.2053Z" fill="#134EF2"/>
</svg>
