<svg width="163" height="40" viewBox="0 0 163 40" fill="none" xmlns="http://www.w3.org/2000/svg">
<path d="M21.9365 16.7552C21.9556 16.9297 21.8173 17.0798 21.6418 17.0798H15.7899C15.6343 17.0798 15.5056 16.9606 15.484 16.8065C15.4242 16.381 15.3125 15.9892 15.1487 15.6312C14.958 15.1977 14.691 14.8251 14.3477 14.5133C14.0121 14.1939 13.604 13.9506 13.1235 13.7833C12.643 13.6084 12.0976 13.5209 11.4874 13.5209C10.4195 13.5209 9.51559 13.7795 8.7757 14.2966C8.04344 14.8137 7.48661 15.5551 7.10523 16.5209C6.73147 17.4867 6.54459 18.6464 6.54459 20C6.54459 21.4297 6.73528 22.6274 7.11667 23.5932C7.50568 24.5513 8.06632 25.2738 8.79858 25.7605C9.53084 26.2395 10.4118 26.4791 11.4416 26.4791C12.0289 26.4791 12.5552 26.4068 13.0205 26.2624C13.4858 26.1103 13.8901 25.8935 14.2333 25.6122C14.5766 25.3308 14.855 24.9924 15.0686 24.597C15.2516 24.2635 15.385 23.8961 15.4688 23.4949C15.4993 23.3491 15.6253 23.2403 15.7743 23.2414L21.6463 23.2829C21.8201 23.2841 21.957 23.4325 21.9362 23.6051C21.8293 24.4909 21.5614 25.3919 21.1326 26.308C20.6521 27.327 19.9694 28.27 19.0846 29.1369C18.2074 29.9962 17.1204 30.6882 15.8237 31.2129C14.527 31.7376 13.0205 32 11.3043 32C9.15327 32 7.22345 31.5399 5.51484 30.6198C3.81386 29.6996 2.46757 28.346 1.47596 26.5589C0.491988 24.7719 0 22.5856 0 20C0 17.3992 0.50343 15.2091 1.51029 13.4297C2.51715 11.6426 3.87488 10.2928 5.58349 9.38023C7.2921 8.46008 9.19903 8 11.3043 8C12.7841 8 14.1456 8.20152 15.3889 8.60456C16.6323 9.0076 17.723 9.59696 18.6612 10.3726C19.5994 11.1407 20.3546 12.0875 20.9267 13.2129C21.4558 14.2538 21.7924 15.4346 21.9365 16.7552Z" fill="#134EF2"/>
<path d="M25.2453 31.6806C25.0797 31.6806 24.9455 31.5464 24.9455 31.3808V14.4595C24.9455 14.2939 25.0797 14.1597 25.2453 14.1597H41.0301C41.1957 14.1597 41.3299 14.2939 41.3299 14.4595V31.3808C41.3299 31.5464 41.1957 31.6806 41.0301 31.6806H35.68C35.5145 31.6806 35.3802 31.5464 35.3802 31.3808V19.1591C35.3802 18.9935 35.246 18.8593 35.0805 18.8593H31.1034C30.9378 18.8593 30.8036 18.9935 30.8036 19.1591V31.3808C30.8036 31.5464 30.6694 31.6806 30.5038 31.6806H25.2453Z" fill="#134EF2"/>
<path d="M44.1582 31.6806C43.9938 31.6806 43.86 31.5481 43.8585 31.3837L43.8185 27.238C43.8169 27.0713 43.9515 26.9354 44.1182 26.9354H44.3648C44.708 26.9354 45.0093 26.8365 45.2686 26.6388C45.5356 26.4411 45.7606 26.1369 45.9437 25.7262C46.1344 25.3156 46.2831 24.7947 46.3899 24.1635C46.5043 23.5323 46.5768 22.7833 46.6073 21.9163L46.8717 14.4489C46.8774 14.2875 47.0098 14.1597 47.1713 14.1597H61.0443C61.2099 14.1597 61.3441 14.2939 61.3441 14.4595V31.3808C61.3441 31.5464 61.2099 31.6806 61.0443 31.6806H55.6942C55.5287 31.6806 55.3944 31.5464 55.3944 31.3808V19.1591C55.3944 18.9935 55.2602 18.8593 55.0947 18.8593H52.7483C52.5895 18.8593 52.4582 18.9832 52.449 19.1418L52.1908 23.6046C52.1145 25.0951 51.9009 26.3574 51.5501 27.3916C51.2068 28.4259 50.7492 29.2586 50.1771 29.8897C49.605 30.5133 48.9414 30.9696 48.1862 31.2586C47.4311 31.5399 46.5997 31.6806 45.692 31.6806H44.1582Z" fill="#134EF2"/>
<path d="M71.3268 18.6768C70.8082 18.6768 70.3963 18.7529 70.0912 18.9049C69.7937 19.057 69.5801 19.2814 69.4504 19.5779C69.3567 19.7998 69.299 20.0688 69.2772 20.3848C69.2659 20.55 69.1332 20.6844 68.9676 20.6844H64.0294C63.8639 20.6844 63.7291 20.5502 63.7345 20.3847C63.7657 19.4328 63.9472 18.5745 64.2788 17.8099C64.645 16.9582 65.1675 16.2395 65.8463 15.654C66.5252 15.0608 67.3261 14.6122 68.2491 14.308C69.1796 13.9962 70.2056 13.8403 71.3268 13.8403C73.2033 13.8403 74.7746 14.2281 76.0408 15.0038C77.3146 15.7719 78.2719 16.8289 78.9126 18.1749C79.561 19.5209 79.8852 21.057 79.8852 22.7833V23.057C79.8852 24.7985 79.5648 26.3422 78.9241 27.6882C78.291 29.0342 77.3375 30.0913 76.0637 30.8593C74.7975 31.6198 73.2185 32 71.3268 32C69.8166 32 68.4893 31.7262 67.3452 31.1787C66.2086 30.6236 65.32 29.8061 64.6793 28.7262C64.0862 27.7075 63.7709 26.4652 63.7334 24.9994C63.7292 24.8339 63.8639 24.6996 64.0294 24.6996H68.9676C69.1332 24.6996 69.2662 24.834 69.2765 24.9992C69.2978 25.3375 69.3557 25.6483 69.4504 25.9316C69.5801 26.2966 69.7937 26.5855 70.0912 26.7985C70.3963 27.0038 70.8082 27.1103 71.3268 27.1179C72.1506 27.1103 72.7456 26.8973 73.1117 26.4791C73.4779 26.0608 73.7067 25.5399 73.7982 24.9163C73.8898 24.2852 73.9355 23.6654 73.9355 23.057V22.7833C73.9355 22.0608 73.8821 21.3878 73.7754 20.7643C73.6762 20.1407 73.4397 19.6388 73.066 19.2586C72.6998 18.8707 72.1201 18.6768 71.3268 18.6768ZM75.2376 21.4144C75.4031 21.4144 75.5374 21.5487 75.5374 21.7142V24.2173C75.5374 24.3829 75.4031 24.5171 75.2376 24.5171H70.6198C70.4542 24.5171 70.32 24.3829 70.32 24.2173V21.7142C70.32 21.5487 70.4542 21.4144 70.6198 21.4144H75.2376Z" fill="#134EF2"/>
<path d="M82.4624 14.4595C82.4624 14.2939 82.5966 14.1597 82.7622 14.1597H88.1122C88.2778 14.1597 88.412 14.2939 88.412 14.4595V26.6356C88.412 26.8011 88.5462 26.9354 88.7118 26.9354H91.9566C92.1222 26.9354 92.2564 26.8011 92.2564 26.6356V14.4595C92.2564 14.2939 92.3906 14.1597 92.5562 14.1597H97.9062C98.0718 14.1597 98.206 14.2939 98.206 14.4595V26.6356C98.206 26.8011 98.3402 26.9354 98.5058 26.9354H101.751C101.916 26.9354 102.05 26.8011 102.05 26.6356V14.4595C102.05 14.2939 102.185 14.1597 102.35 14.1597H107.7C107.866 14.1597 108 14.2939 108 14.4595V31.3808C108 31.5464 107.866 31.6806 107.7 31.6806H82.7622C82.5966 31.6806 82.4624 31.5464 82.4624 31.3808V14.4595Z" fill="#134EF2"/>
<rect x="123" width="40" height="40" rx="10.9419" fill="#134EF2"/>
<path d="M133.359 30.3759C133.525 30.3759 133.659 30.2417 133.659 30.0761L133.659 19.2457C133.659 16.8846 136.763 13.8614 140.158 15.1103C140.283 15.1566 140.358 15.2857 140.342 15.4188L140.123 17.2183C140.112 17.3102 140.144 17.4022 140.21 17.4674L143.514 20.7409C143.633 20.8581 143.63 21.0516 143.512 21.1689C143.394 21.2862 143.391 21.4797 143.51 21.597L145.373 23.4428C145.49 23.5586 145.678 23.5586 145.795 23.4428L153.191 16.1163C153.309 15.999 153.309 15.8077 153.191 15.6904L151.328 13.8445C151.211 13.7288 151.023 13.7288 150.906 13.8445L150.869 13.8804C150.753 13.9962 150.564 13.9962 150.448 13.8804L147.138 10.6016C147.073 10.5372 146.982 10.506 146.891 10.5169L143.712 10.8966C143.648 10.9042 143.583 10.891 143.527 10.8595C142.352 10.2013 140.758 9.62402 138.718 9.62402C132.31 9.62402 128.263 14.7021 128.263 19.4461L128.263 30.0761C128.263 30.2417 128.397 30.3759 128.563 30.3759H133.359Z" fill="white"/>
<path d="M160.293 16.9877C160.293 16.8221 160.159 16.6879 159.993 16.6879H155.399C155.233 16.6879 155.099 16.8221 155.099 16.9877V20.3408C155.099 20.5064 155.233 20.6406 155.399 20.6406H159.993C160.159 20.6406 160.293 20.5064 160.293 20.3408V16.9877Z" fill="white"/>
<path d="M146.889 25.1879C146.723 25.1879 146.589 25.3222 146.589 25.4877V30.0761C146.589 30.2417 146.723 30.3759 146.889 30.3759H150.247C150.412 30.3759 150.547 30.2417 150.547 30.0761V25.4877C150.547 25.3222 150.412 25.1879 150.247 25.1879H146.889Z" fill="white"/>
<path d="M155.784 28.1894C155.666 28.3063 155.477 28.3063 155.36 28.1894L152.111 24.9447C151.994 24.8276 151.994 24.6376 152.111 24.5205L154.485 22.1492C154.602 22.0323 154.792 22.0323 154.909 22.1492L158.158 25.3939C158.275 25.511 158.275 25.701 158.158 25.8181L155.784 28.1894Z" fill="white"/>
</svg>
